HIERARCHY
ROOT Hips
{
  OFFSET 0.000000 95.000000 0.000000
  CHANNELS 6 Xposition Yposition Zposition Zrotation Xrotation Yrotation
  JOINT Spine
  {
    OFFSET 0.000000 10.000000 0.000000
    CHANNELS 3 Zrotation Xrotation Yrotation
    JOINT Spine1
    {
      OFFSET 0.000000 12.000000 0.000000
      CHANNELS 3 Zrotation Xrotation Yrotation
      JOINT Spine2
      {
        OFFSET 0.000000 12.000000 0.000000
        CHANNELS 3 Zrotation Xrotation Yrotation
        JOINT Neck
        {
          OFFSET 0.000000 10.000000 0.000000
          CHANNELS 3 Zrotation Xrotation Yrotation
          JOINT Head
          {
            OFFSET 0.000000 8.000000 0.000000
            CHANNELS 3 Zrotation Xrotation Yrotation
            End Site
            {
              OFFSET 0.000000 10.000000 0.000000
            }
          }
        }
        JOINT LeftShoulder
        {
          OFFSET 6.000000 8.000000 0.000000
          CHANNELS 3 Zrotation Xrotation Yrotation
          JOINT LeftArm
          {
            OFFSET 12.000000 0.000000 0.000000
            CHANNELS 3 Zrotation Xrotation Yrotation
            JOINT LeftForeArm
            {
              OFFSET 24.000000 0.000000 0.000000
              CHANNELS 3 Zrotation Xrotation Yrotation
              JOINT LeftHand
              {
                OFFSET 22.000000 0.000000 0.000000
                CHANNELS 3 Zrotation Xrotation Yrotation
                JOINT LeftHandThumb1
                {
                  OFFSET 1.800000 -1.400000 0.500000
                  CHANNELS 3 Zrotation Xrotation Yrotation
                  JOINT LeftHandThumb2
                  {
                    OFFSET 2.400000 0.000000 0.000000
                    CHANNELS 3 Zrotation Xrotation Yrotation
                    JOINT LeftHandThumb3
                    {
                      OFFSET 1.900000 0.000000 0.000000
                      CHANNELS 3 Zrotation Xrotation Yrotation
                      End Site
                      {
                        OFFSET 1.600000 0.000000 0.000000
                      }
                    }
                  }
                }
                JOINT LeftHandIndex1
                {
                  OFFSET 6.600000 1.200000 0.300000
                  CHANNELS 3 Zrotation Xrotation Yrotation
                  JOINT LeftHandIndex2
                  {
                    OFFSET 2.000000 0.000000 0.000000
                    CHANNELS 3 Zrotation Xrotation Yrotation
                    JOINT LeftHandIndex3
                    {
                      OFFSET 1.200000 0.000000 0.000000
                      CHANNELS 3 Zrotation Xrotation Yrotation
                      End Site
                      {
                        OFFSET 1.000000 0.000000 0.000000
                      }
                    }
                  }
                }
                JOINT LeftHandMiddle1
                {
                  OFFSET 7.200000 0.000000 0.300000
                  CHANNELS 3 Zrotation Xrotation Yrotation
                  JOINT LeftHandMiddle2
                  {
                    OFFSET 3.000000 0.000000 0.000000
                    CHANNELS 3 Zrotation Xrotation Yrotation
                    JOINT LeftHandMiddle3
                    {
                      OFFSET 2.000000 0.000000 0.000000
                      CHANNELS 3 Zrotation Xrotation Yrotation
                      End Site
                      {
                        OFFSET 1.600000 0.000000 0.000000
                      }
                    }
                  }
                }
                JOINT LeftHandRing1
                {
                  OFFSET 7.100000 -1.000000 0.400000
                  CHANNELS 3 Zrotation Xrotation Yrotation
                  JOINT LeftHandRing2
                  {
                    OFFSET 2.600000 0.000000 0.000000
                    CHANNELS 3 Zrotation Xrotation Yrotation
                    JOINT LeftHandRing3
                    {
                      OFFSET 1.600000 0.000000 0.000000
                      CHANNELS 3 Zrotation Xrotation Yrotation
                      End Site
                      {
                        OFFSET 1.300000 0.000000 0.000000
                      }
                    }
                  }
                }
                JOINT LeftHandPinky1
                {
                  OFFSET 6.500000 -2.000000 0.500000
                  CHANNELS 3 Zrotation Xrotation Yrotation
                  JOINT LeftHandPinky2
                  {
                    OFFSET 1.900000 0.000000 0.000000
                    CHANNELS 3 Zrotation Xrotation Yrotation
                    JOINT LeftHandPinky3
                    {
                      OFFSET 1.400000 0.000000 0.000000
                      CHANNELS 3 Zrotation Xrotation Yrotation
                      End Site
                      {
                        OFFSET 1.300000 0.000000 0.000000
                      }
                    }
                  }
                }
              }
            }
          }
        }
        JOINT RightShoulder
        {
          OFFSET -6.000000 8.000000 0.000000
          CHANNELS 3 Zrotation Xrotation Yrotation
          JOINT RightArm
          {
            OFFSET -12.000000 0.000000 0.000000
            CHANNELS 3 Zrotation Xrotation Yrotation
            JOINT RightForeArm
            {
              OFFSET -24.000000 0.000000 0.000000
              CHANNELS 3 Zrotation Xrotation Yrotation
              JOINT RightHand
              {
                OFFSET -22.000000 0.000000 0.000000
                CHANNELS 3 Zrotation Xrotation Yrotation
                JOINT RightHandThumb1
                {
                  OFFSET -1.800000 -1.400000 0.500000
                  CHANNELS 3 Zrotation Xrotation Yrotation
                  JOINT RightHandThumb2
                  {
                    OFFSET -2.400000 0.000000 0.000000
                    CHANNELS 3 Zrotation Xrotation Yrotation
                    JOINT RightHandThumb3
                    {
                      OFFSET -1.900000 0.000000 0.000000
                      CHANNELS 3 Zrotation Xrotation Yrotation
                      End Site
                      {
                        OFFSET -1.600000 0.000000 0.000000
                      }
                    }
                  }
                }
                JOINT RightHandIndex1
                {
                  OFFSET -6.600000 1.200000 0.300000
                  CHANNELS 3 Zrotation Xrotation Yrotation
                  JOINT RightHandIndex2
                  {
                    OFFSET -2.000000 0.000000 0.000000
                    CHANNELS 3 Zrotation Xrotation Yrotation
                    JOINT RightHandIndex3
                    {
                      OFFSET -1.200000 0.000000 0.000000
                      CHANNELS 3 Zrotation Xrotation Yrotation
                      End Site
                      {
                        OFFSET -1.000000 0.000000 0.000000
                      }
                    }
                  }
                }
                JOINT RightHandMiddle1
                {
                  OFFSET -7.200000 0.000000 0.300000
                  CHANNELS 3 Zrotation Xrotation Yrotation
                  JOINT RightHandMiddle2
                  {
                    OFFSET -3.000000 0.000000 0.000000
                    CHANNELS 3 Zrotation Xrotation Yrotation
                    JOINT RightHandMiddle3
                    {
                      OFFSET -2.000000 0.000000 0.000000
                      CHANNELS 3 Zrotation Xrotation Yrotation
                      End Site
                      {
                        OFFSET -1.600000 0.000000 0.000000
                      }
                    }
                  }
                }
                JOINT RightHandRing1
                {
                  OFFSET -7.100000 -1.000000 0.400000
                  CHANNELS 3 Zrotation Xrotation Yrotation
                  JOINT RightHandRing2
                  {
                    OFFSET -2.600000 0.000000 0.000000
                    CHANNELS 3 Zrotation Xrotation Yrotation
                    JOINT RightHandRing3
                    {
                      OFFSET -1.600000 0.000000 0.000000
                      CHANNELS 3 Zrotation Xrotation Yrotation
                      End Site
                      {
                        OFFSET -1.300000 0.000000 0.000000
                      }
                    }
                  }
                }
                JOINT RightHandPinky1
                {
                  OFFSET -6.500000 -2.000000 0.500000
                  CHANNELS 3 Zrotation Xrotation Yrotation
                  JOINT RightHandPinky2
                  {
                    OFFSET -1.900000 0.000000 0.000000
                    CHANNELS 3 Zrotation Xrotation Yrotation
                    JOINT RightHandPinky3
                    {
                      OFFSET -1.400000 0.000000 0.000000
                      CHANNELS 3 Zrotation Xrotation Yrotation
                      End Site
                      {
                        OFFSET -1.300000 0.000000 0.000000
                      }
                    }
                  }
                }
              }
            }
          }
        }
      }
    }
  }
  JOINT LeftUpLeg
  {
    OFFSET 10.000000 -5.000000 0.000000
    CHANNELS 3 Zrotation Xrotation Yrotation
    JOINT LeftLeg
    {
      OFFSET 0.000000 -42.000000 0.000000
      CHANNELS 3 Zrotation Xrotation Yrotation
      JOINT LeftFoot
      {
        OFFSET 0.000000 -42.000000 4.000000
        CHANNELS 3 Zrotation Xrotation Yrotation
        End Site
        {
          OFFSET 0.000000 0.000000 12.000000
        }
      }
    }
  }
  JOINT RightUpLeg
  {
    OFFSET -10.000000 -5.000000 0.000000
    CHANNELS 3 Zrotation Xrotation Yrotation
    JOINT RightLeg
    {
      OFFSET 0.000000 -42.000000 0.000000
      CHANNELS 3 Zrotation Xrotation Yrotation
      JOINT RightFoot
      {
        OFFSET 0.000000 -42.000000 4.000000
        CHANNELS 3 Zrotation Xrotation Yrotation
        End Site
        {
          OFFSET 0.000000 0.000000 12.000000
        }
      }
    }
  }
}
MOTION
Frames: 5
Frame Time: 0.033333
0.0000 95.0000 0.0000 0.0000 0.0000 0.0000 0.0000 0.0000 0.0000 0.0000 0.0000 0.0000 0.0000 0.0000 0.0000 0.0000 0.0000 0.0000 0.0000 0.0000 0.0000 0.0000 0.0000 0.0000 -76.0034 13.6100 17.3671 -6.5284 18.0697 -24.0434 465.7298 77.7889 332.9211 59.8440 -12.8379 -2.0054 13.9157 0.0000 0.0000 26.3982 0.0000 0.0000 3.5748 1.5568 -8.0400 26.0927 0.0000 0.0000 6.0671 0.0000 0.0000 16.3411 1.4102 -14.5703 11.8537 0.0000 0.0000 11.6862 0.0000 0.0000 25.2661 -0.4502 -11.7247 27.0680 0.0000 0.0000 2.4143 0.0000 0.0000 36.0921 -2.4643 -8.0850 30.0854 0.0000 0.0000 6.8504 0.0000 0.0000 0.0000 0.0000 0.0000 47.7752 -17.6652 38.6683 -112.1042 46.2867 -27.5921 299.4314 -53.2535 41.4360 -45.7115 -8.6370 -5.7415 5.9211 0.0000 0.0000 19.7555 0.0000 0.0000 61.7961 -17.6520 51.9121 96.7807 0.0000 0.0000 62.3891 0.0000 0.0000 50.2890 -23.9285 53.3659 110.0000 0.0000 0.0000 57.5499 0.0000 0.0000 39.8598 -24.9049 50.1958 110.0000 0.0000 0.0000 45.0408 0.0000 0.0000 26.2074 -27.0579 49.6194 110.0000 0.0000 0.0000 38.7617 0.0000 0.0000 0.0000 0.0000 0.0000 0.0000 0.0000 0.0000 0.0000 0.0000 0.0000 0.0000 0.0000 0.0000 0.0000 0.0000 0.0000 0.0000 0.0000 0.0000
0.0000 95.0000 0.0000 0.0000 0.0000 0.0000 0.0000 0.0000 0.0000 0.0000 0.0000 0.0000 0.0000 0.0000 0.0000 0.0000 0.0000 0.0000 0.0000 0.0000 0.0000 0.0000 0.0000 0.0000 -76.0304 13.6918 17.4625 -6.3702 18.1503 -24.1166 465.1567 77.7330 332.3396 59.8440 -12.8379 -2.0054 13.9157 0.0000 0.0000 26.3982 0.0000 0.0000 3.5748 1.5568 -8.0400 26.0927 0.0000 0.0000 6.0671 0.0000 0.0000 16.3411 1.4102 -14.5703 11.8537 0.0000 0.0000 11.6862 0.0000 0.0000 25.2661 -0.4502 -11.7247 27.0680 0.0000 0.0000 2.4143 0.0000 0.0000 36.0921 -2.4643 -8.0850 30.0854 0.0000 0.0000 6.8504 0.0000 0.0000 0.0000 0.0000 0.0000 48.5317 -18.0343 38.7863 -112.1112 47.5158 -27.8797 305.3361 -51.9118 37.3466 -46.8837 -9.4269 -3.6326 5.4301 0.0000 0.0000 20.3444 0.0000 0.0000 56.7331 -15.2446 51.9481 98.8869 0.0000 0.0000 50.6353 0.0000 0.0000 45.4892 -21.5727 53.6500 110.0000 0.0000 0.0000 52.8128 0.0000 0.0000 35.4080 -23.5945 51.7533 110.0000 0.0000 0.0000 46.6380 0.0000 0.0000 23.9347 -26.8315 51.0303 110.0000 0.0000 0.0000 41.9884 0.0000 0.0000 0.0000 0.0000 0.0000 0.0000 0.0000 0.0000 0.0000 0.0000 0.0000 0.0000 0.0000 0.0000 0.0000 0.0000 0.0000 0.0000 0.0000 0.0000
0.0000 95.0000 0.0000 0.0000 0.0000 0.0000 0.0000 0.0000 0.0000 0.0000 0.0000 0.0000 0.0000 0.0000 0.0000 0.0000 0.0000 0.0000 0.0000 0.0000 0.0000 0.0000 0.0000 0.0000 -75.9392 13.9907 17.8702 -6.5474 18.4418 -24.5565 465.3535 77.7476 332.5441 59.8440 -12.8379 -2.0054 13.9157 0.0000 0.0000 26.3982 0.0000 0.0000 3.5748 1.5568 -8.0400 26.0927 0.0000 0.0000 6.0671 0.0000 0.0000 16.3411 1.4102 -14.5703 11.8537 0.0000 0.0000 11.6862 0.0000 0.0000 25.2661 -0.4502 -11.7247 27.0680 0.0000 0.0000 2.4143 0.0000 0.0000 36.0921 -2.4643 -8.0850 30.0854 0.0000 0.0000 6.8504 0.0000 0.0000 0.0000 0.0000 0.0000 51.1193 -18.5234 37.6557 -114.3663 49.0505 -29.2590 295.4713 -50.6188 49.7095 -44.6658 -9.0644 -3.1609 2.1789 0.0000 0.0000 20.8400 0.0000 0.0000 63.2261 -13.9047 41.8160 97.2059 0.0000 0.0000 54.0949 0.0000 0.0000 51.6265 -20.0515 44.9258 110.0000 0.0000 0.0000 55.3121 0.0000 0.0000 40.9001 -22.0194 44.4326 110.0000 0.0000 0.0000 48.9758 0.0000 0.0000 27.8670 -24.0620 43.6358 110.0000 0.0000 0.0000 46.8836 0.0000 0.0000 0.0000 0.0000 0.0000 0.0000 0.0000 0.0000 0.0000 0.0000 0.0000 0.0000 0.0000 0.0000 0.0000 0.0000 0.0000 0.0000 0.0000 0.0000
0.0000 95.0000 0.0000 0.0000 0.0000 0.0000 0.0000 0.0000 0.0000 0.0000 0.0000 0.0000 0.0000 0.0000 0.0000 0.0000 0.0000 0.0000 0.0000 0.0000 0.0000 0.0000 0.0000 0.0000 -79.6097 5.0232 6.0263 -1.7395 9.9487 -12.1675 465.1053 77.7017 332.3136 59.8440 -12.8379 -2.0054 13.9157 0.0000 0.0000 26.3982 0.0000 0.0000 3.5748 1.5568 -8.0400 26.0927 0.0000 0.0000 6.0671 0.0000 0.0000 16.3411 1.4102 -14.5703 11.8537 0.0000 0.0000 11.6862 0.0000 0.0000 25.2661 -0.4502 -11.7247 27.0680 0.0000 0.0000 2.4143 0.0000 0.0000 36.0921 -2.4643 -8.0850 30.0854 0.0000 0.0000 6.8504 0.0000 0.0000 0.0000 0.0000 0.0000 53.9379 -19.0144 36.4352 -116.4601 50.7914 -30.7142 308.3525 -51.2138 45.7515 -52.2065 -11.6977 2.3741 3.7916 0.0000 0.0000 18.3224 0.0000 0.0000 48.3575 -7.4150 37.8144 106.9527 0.0000 0.0000 44.2909 0.0000 0.0000 40.8468 -14.3857 42.2175 110.0000 0.0000 0.0000 46.8462 0.0000 0.0000 30.9156 -16.8562 42.2356 110.0000 0.0000 0.0000 34.6682 0.0000 0.0000 20.4819 -19.6393 40.9464 110.0000 0.0000 0.0000 30.4901 0.0000 0.0000 0.0000 0.0000 0.0000 0.0000 0.0000 0.0000 0.0000 0.0000 0.0000 0.0000 0.0000 0.0000 0.0000 0.0000 0.0000 0.0000 0.0000 0.0000
0.0000 95.0000 0.0000 0.0000 0.0000 0.0000 0.0000 0.0000 0.0000 0.0000 0.0000 0.0000 0.0000 0.0000 0.0000 0.0000 0.0000 0.0000 0.0000 0.0000 0.0000 0.0000 0.0000 0.0000 -79.6687 5.0336 6.0324 -1.8171 9.9761 -12.1971 465.6768 77.7516 332.8996 59.8440 -12.8379 -2.0054 13.9157 0.0000 0.0000 26.3982 0.0000 0.0000 3.5748 1.5568 -8.0400 26.0927 0.0000 0.0000 6.0671 0.0000 0.0000 16.3411 1.4102 -14.5703 11.8537 0.0000 0.0000 11.6862 0.0000 0.0000 25.2661 -0.4502 -11.7247 27.0680 0.0000 0.0000 2.4143 0.0000 0.0000 36.0921 -2.4643 -8.0850 30.0854 0.0000 0.0000 6.8504 0.0000 0.0000 0.0000 0.0000 0.0000 57.7075 -19.4274 34.5182 -116.6820 53.9384 -31.0070 305.0727 -47.3740 51.2085 -49.9399 -11.6046 3.6595 8.7942 0.0000 0.0000 24.3952 0.0000 0.0000 50.2858 -6.8229 33.6148 102.5839 0.0000 0.0000 47.8968 0.0000 0.0000 40.5685 -12.2351 37.1150 110.0000 0.0000 0.0000 50.7641 0.0000 0.0000 31.5223 -14.8038 37.3799 110.0000 0.0000 0.0000 42.0133 0.0000 0.0000 20.7703 -17.3188 36.4514 110.0000 0.0000 0.0000 38.4717 0.0000 0.0000 0.0000 0.0000 0.0000 0.0000 0.0000 0.0000 0.0000 0.0000 0.0000 0.0000 0.0000 0.0000 0.0000 0.0000 0.0000 0.0000 0.0000 0.0000
